<svg width="165" height="43" viewBox="0 0 165 43" fill="none" xmlns="http://www.w3.org/2000/svg">
<path d="M39.16 30.856C39.512 30.856 39.848 30.808 40.168 30.712C40.504 30.616 40.784 30.496 41.008 30.352C41.296 30.16 41.504 29.936 41.632 29.68C41.76 29.408 41.88 29.048 41.992 28.6L42.544 26.488C42.72 25.832 42.784 25.344 42.736 25.024C42.704 24.704 42.528 24.488 42.208 24.376C41.904 24.264 41.416 24.2 40.744 24.184L40.864 23.704C41.2 23.72 41.6 23.736 42.064 23.752C42.544 23.752 43.032 23.76 43.528 23.776C44.04 23.776 44.512 23.776 44.944 23.776C45.648 23.776 46.296 23.768 46.888 23.752C47.48 23.736 47.96 23.72 48.328 23.704L48.208 24.184C47.856 24.2 47.576 24.256 47.368 24.352C47.176 24.448 47.008 24.64 46.864 24.928C46.736 25.216 46.592 25.656 46.432 26.248L45.16 31H44.68C44.712 30.584 44.672 30.256 44.56 30.016C44.464 29.76 44.28 29.632 44.008 29.632C43.704 29.632 43.376 29.72 43.024 29.896C42.688 30.056 42.344 30.224 41.992 30.4C41.384 30.72 40.8 30.952 40.24 31.096C39.68 31.256 39.104 31.336 38.512 31.336C36.432 31.336 34.808 30.856 33.64 29.896C32.488 28.936 31.912 27.584 31.912 25.84C31.912 24.752 32.088 23.64 32.44 22.504C32.808 21.368 33.32 20.272 33.976 19.216C34.648 18.16 35.456 17.216 36.4 16.384C37.36 15.552 38.424 14.896 39.592 14.416C40.776 13.92 42.056 13.672 43.432 13.672C44.472 13.672 45.272 13.824 45.832 14.128C46.408 14.432 46.92 14.8 47.368 15.232C47.608 15.472 47.832 15.512 48.04 15.352C48.248 15.192 48.48 14.744 48.736 14.008H49.264C49.024 14.632 48.776 15.392 48.52 16.288C48.264 17.168 48 18.248 47.728 19.528H47.2C47.232 19.208 47.256 18.904 47.272 18.616C47.304 18.312 47.32 18.016 47.32 17.728C47.32 17.392 47.296 17.088 47.248 16.816C47.216 16.528 47.128 16.248 46.984 15.976C46.664 15.368 46.184 14.904 45.544 14.584C44.92 14.264 44.168 14.104 43.288 14.104C42.296 14.104 41.4 14.392 40.6 14.968C39.816 15.528 39.112 16.28 38.488 17.224C37.88 18.152 37.368 19.176 36.952 20.296C36.552 21.4 36.248 22.512 36.04 23.632C35.832 24.736 35.728 25.736 35.728 26.632C35.728 28.072 36.008 29.136 36.568 29.824C37.144 30.512 38.008 30.856 39.16 30.856ZM52.9422 30.04C53.1982 30.04 53.4782 29.904 53.7822 29.632C54.0862 29.36 54.3982 28.968 54.7182 28.456C55.0382 27.928 55.3502 27.288 55.6542 26.536C55.9582 25.784 56.2382 24.912 56.4942 23.92L55.9662 26.536C55.5662 27.72 55.1262 28.664 54.6462 29.368C54.1662 30.072 53.6542 30.576 53.1102 30.88C52.5662 31.184 51.9982 31.336 51.4062 31.336C50.5102 31.336 49.8382 31.072 49.3902 30.544C48.9422 30.016 48.7182 29.296 48.7182 28.384C48.7182 27.52 48.8622 26.616 49.1502 25.672C49.4542 24.728 49.8542 23.816 50.3502 22.936C50.8622 22.056 51.4302 21.264 52.0542 20.56C52.6942 19.856 53.3662 19.296 54.0702 18.88C54.7902 18.464 55.4942 18.256 56.1822 18.256C56.7102 18.256 57.1182 18.464 57.4062 18.88C57.6942 19.296 57.7822 19.944 57.6702 20.824L57.4062 20.968C57.4862 20.392 57.4542 19.944 57.3102 19.624C57.1822 19.304 56.9582 19.144 56.6382 19.144C56.3182 19.144 55.9582 19.328 55.5582 19.696C55.1742 20.064 54.7902 20.568 54.4062 21.208C54.0222 21.848 53.6622 22.576 53.3262 23.392C53.0062 24.192 52.7502 25.04 52.5582 25.936C52.3662 26.816 52.2702 27.688 52.2702 28.552C52.2702 29.096 52.3262 29.48 52.4382 29.704C52.5502 29.928 52.7182 30.04 52.9422 30.04ZM58.0302 18.616C58.7182 18.6 59.3422 18.568 59.9022 18.52C60.4622 18.456 60.9982 18.368 61.5102 18.256L58.3662 28.96C58.3182 29.168 58.2782 29.368 58.2462 29.56C58.2302 29.736 58.2542 29.88 58.3182 29.992C58.3982 30.104 58.5262 30.16 58.7022 30.16C58.9102 30.16 59.1422 30.04 59.3982 29.8C59.6542 29.544 59.9182 29.032 60.1902 28.264L60.6222 27.112H61.0782L60.4782 28.864C60.2542 29.52 59.9662 30.024 59.6142 30.376C59.2622 30.728 58.8862 30.976 58.4862 31.12C58.0862 31.264 57.6942 31.336 57.3102 31.336C56.4782 31.336 55.8862 31.088 55.5342 30.592C55.2942 30.24 55.1822 29.808 55.1982 29.296C55.2302 28.768 55.3422 28.168 55.5342 27.496L58.0302 18.616ZM65.869 31H62.485L65.413 20.632C65.477 20.424 65.509 20.232 65.509 20.056C65.525 19.864 65.509 19.712 65.461 19.6C65.413 19.488 65.293 19.432 65.101 19.432C64.829 19.432 64.573 19.576 64.333 19.864C64.093 20.152 63.845 20.64 63.589 21.328L63.133 22.552H62.677L63.325 20.728C63.565 20.088 63.853 19.592 64.189 19.24C64.525 18.888 64.901 18.64 65.317 18.496C65.733 18.336 66.149 18.256 66.565 18.256C67.109 18.256 67.525 18.36 67.813 18.568C68.101 18.76 68.293 19.024 68.389 19.36C68.485 19.696 68.517 20.064 68.485 20.464C68.453 20.848 68.389 21.232 68.293 21.616L65.869 31ZM71.677 21.04C71.757 20.768 71.813 20.528 71.845 20.32C71.893 20.096 71.893 19.92 71.845 19.792C71.797 19.664 71.677 19.6 71.485 19.6C71.117 19.6 70.725 19.824 70.309 20.272C69.893 20.704 69.461 21.32 69.013 22.12C68.581 22.92 68.149 23.872 67.717 24.976C67.285 26.08 66.877 27.288 66.493 28.6L66.613 26.944C67.285 24.816 67.941 23.12 68.581 21.856C69.221 20.576 69.909 19.656 70.645 19.096C71.381 18.536 72.213 18.256 73.141 18.256C73.669 18.256 74.069 18.352 74.341 18.544C74.629 18.736 74.821 19 74.917 19.336C75.013 19.672 75.037 20.056 74.989 20.488C74.957 20.92 74.877 21.384 74.749 21.88L72.181 31H68.749L71.677 21.04ZM78.085 21.04C78.229 20.624 78.293 20.28 78.277 20.008C78.277 19.736 78.165 19.6 77.941 19.6C77.637 19.6 77.285 19.792 76.885 20.176C76.501 20.544 76.085 21.112 75.637 21.88C75.189 22.632 74.725 23.592 74.245 24.76C73.765 25.912 73.285 27.272 72.805 28.84L72.853 27.544C73.429 25.72 73.973 24.208 74.485 23.008C75.013 21.808 75.541 20.864 76.069 20.176C76.613 19.472 77.173 18.976 77.749 18.688C78.325 18.4 78.941 18.256 79.597 18.256C80.285 18.256 80.781 18.424 81.085 18.76C81.389 19.08 81.541 19.512 81.541 20.056C81.557 20.6 81.453 21.208 81.229 21.88L78.877 28.96C78.717 29.424 78.677 29.744 78.757 29.92C78.853 30.08 78.997 30.16 79.189 30.16C79.397 30.16 79.629 30.048 79.885 29.824C80.141 29.584 80.413 29.064 80.701 28.264L81.133 27.112H81.589L80.989 28.864C80.765 29.536 80.469 30.048 80.101 30.4C79.749 30.752 79.365 30.992 78.949 31.12C78.549 31.264 78.149 31.336 77.749 31.336C77.285 31.336 76.893 31.256 76.573 31.096C76.253 30.952 76.005 30.744 75.829 30.472C75.621 30.152 75.525 29.744 75.541 29.248C75.573 28.752 75.701 28.176 75.925 27.52L78.085 21.04ZM85.8237 25.792C86.4797 25.536 87.1037 25.248 87.6957 24.928C88.2877 24.608 88.7917 24.256 89.2077 23.872C89.8317 23.312 90.3277 22.664 90.6957 21.928C91.0797 21.176 91.2717 20.368 91.2717 19.504C91.2717 19.184 91.2397 18.976 91.1757 18.88C91.1117 18.768 91.0157 18.712 90.8877 18.712C90.5357 18.712 90.1517 18.896 89.7357 19.264C89.3357 19.616 88.9357 20.096 88.5357 20.704C88.1357 21.296 87.7677 21.976 87.4317 22.744C87.1117 23.512 86.8477 24.312 86.6397 25.144C86.4477 25.976 86.3517 26.784 86.3517 27.568C86.3517 28.464 86.5197 29.08 86.8557 29.416C87.2077 29.736 87.6557 29.896 88.1997 29.896C88.6317 29.896 89.1677 29.752 89.8077 29.464C90.4477 29.176 91.0797 28.664 91.7037 27.928L92.0877 28.12C91.7517 28.648 91.3117 29.16 90.7677 29.656C90.2237 30.152 89.5917 30.56 88.8717 30.88C88.1517 31.184 87.3677 31.336 86.5197 31.336C85.7997 31.336 85.1517 31.208 84.5757 30.952C84.0157 30.696 83.5677 30.32 83.2317 29.824C82.9117 29.312 82.7517 28.688 82.7517 27.952C82.7517 27.104 82.8877 26.232 83.1597 25.336C83.4477 24.44 83.8477 23.576 84.3597 22.744C84.8717 21.896 85.4877 21.136 86.2077 20.464C86.9277 19.776 87.7277 19.24 88.6077 18.856C89.4877 18.456 90.4237 18.256 91.4157 18.256C92.1197 18.256 92.7117 18.416 93.1917 18.736C93.6717 19.04 93.9117 19.512 93.9117 20.152C93.9117 20.776 93.7357 21.36 93.3837 21.904C93.0477 22.448 92.5917 22.944 92.0157 23.392C91.4397 23.84 90.7917 24.24 90.0717 24.592C89.3677 24.944 88.6397 25.248 87.8877 25.504C87.1517 25.76 86.4557 25.96 85.7997 26.104L85.8237 25.792ZM105.138 23.104C104.498 22.784 103.938 22.344 103.458 21.784C102.994 21.224 102.77 20.576 102.786 19.84C102.802 19.328 102.954 18.936 103.242 18.664C103.53 18.392 103.898 18.256 104.346 18.256C104.954 18.256 105.386 18.504 105.642 19C105.898 19.496 106.002 20.168 105.954 21.016C105.906 21.912 105.762 22.848 105.522 23.824C105.298 24.784 104.978 25.712 104.562 26.608C104.162 27.504 103.65 28.312 103.026 29.032C102.418 29.736 101.706 30.296 100.89 30.712C100.09 31.128 99.1777 31.336 98.1537 31.336C97.2737 31.336 96.5857 31.192 96.0897 30.904C95.5937 30.6 95.2417 30.224 95.0337 29.776C94.8417 29.312 94.7537 28.84 94.7697 28.36C94.7857 27.384 95.0737 26.384 95.6337 25.36C96.1937 24.336 96.9537 23.312 97.9137 22.288C98.8897 21.248 99.9857 20.232 101.202 19.24C100.802 19.288 100.442 19.416 100.122 19.624C99.8017 19.832 99.5057 20.056 99.2337 20.296C98.9617 20.536 98.6897 20.744 98.4177 20.92C98.1617 21.096 97.8897 21.184 97.6017 21.184C97.3297 21.184 97.0897 21.112 96.8817 20.968C96.6897 20.808 96.4737 20.728 96.2337 20.728C96.0097 20.728 95.8257 20.816 95.6817 20.992C95.5537 21.168 95.4177 21.464 95.2737 21.88L95.0817 22.528H94.6257L95.1537 20.776C95.4257 19.784 95.7617 19.112 96.1617 18.76C96.5777 18.408 96.9937 18.232 97.4097 18.232C97.7137 18.232 97.9697 18.304 98.1777 18.448C98.4017 18.576 98.6337 18.704 98.8737 18.832C99.1297 18.96 99.4577 19.024 99.8577 19.024C100.114 19.024 100.386 18.992 100.674 18.928C100.978 18.848 101.29 18.712 101.61 18.52L101.85 18.064L102.354 18.304C101.778 19.136 101.258 19.992 100.794 20.872C100.33 21.736 99.9297 22.608 99.5937 23.488C99.2577 24.352 98.9937 25.192 98.8017 26.008C98.6097 26.808 98.4977 27.552 98.4657 28.24C98.4337 28.944 98.5057 29.456 98.6817 29.776C98.8577 30.096 99.1457 30.256 99.5457 30.256C100.138 30.256 100.698 30.112 101.226 29.824C101.754 29.52 102.234 29.12 102.666 28.624C103.098 28.112 103.482 27.552 103.818 26.944C104.154 26.32 104.434 25.68 104.658 25.024C104.882 24.352 105.042 23.712 105.138 23.104ZM109.683 25.792C110.339 25.536 110.963 25.248 111.555 24.928C112.147 24.608 112.651 24.256 113.067 23.872C113.691 23.312 114.187 22.664 114.555 21.928C114.939 21.176 115.131 20.368 115.131 19.504C115.131 19.184 115.099 18.976 115.035 18.88C114.971 18.768 114.875 18.712 114.747 18.712C114.395 18.712 114.011 18.896 113.595 19.264C113.195 19.616 112.795 20.096 112.395 20.704C111.995 21.296 111.627 21.976 111.291 22.744C110.971 23.512 110.707 24.312 110.499 25.144C110.307 25.976 110.211 26.784 110.211 27.568C110.211 28.464 110.379 29.08 110.715 29.416C111.067 29.736 111.515 29.896 112.059 29.896C112.491 29.896 113.027 29.752 113.667 29.464C114.307 29.176 114.939 28.664 115.563 27.928L115.947 28.12C115.611 28.648 115.171 29.16 114.627 29.656C114.083 30.152 113.451 30.56 112.731 30.88C112.011 31.184 111.227 31.336 110.379 31.336C109.659 31.336 109.011 31.208 108.435 30.952C107.875 30.696 107.427 30.32 107.091 29.824C106.771 29.312 106.611 28.688 106.611 27.952C106.611 27.104 106.747 26.232 107.019 25.336C107.307 24.44 107.707 23.576 108.219 22.744C108.731 21.896 109.347 21.136 110.067 20.464C110.787 19.776 111.587 19.24 112.467 18.856C113.347 18.456 114.283 18.256 115.275 18.256C115.979 18.256 116.571 18.416 117.051 18.736C117.531 19.04 117.771 19.512 117.771 20.152C117.771 20.776 117.595 21.36 117.243 21.904C116.907 22.448 116.451 22.944 115.875 23.392C115.299 23.84 114.651 24.24 113.931 24.592C113.227 24.944 112.499 25.248 111.747 25.504C111.011 25.76 110.315 25.96 109.659 26.104L109.683 25.792ZM121.533 31H118.149L121.077 20.632C121.189 20.2 121.221 19.896 121.173 19.72C121.141 19.528 121.021 19.432 120.813 19.432C120.525 19.432 120.261 19.576 120.021 19.864C119.781 20.136 119.525 20.624 119.253 21.328L118.797 22.552H118.341L118.989 20.728C119.229 20.088 119.517 19.592 119.853 19.24C120.189 18.888 120.565 18.64 120.981 18.496C121.413 18.336 121.853 18.256 122.301 18.256C122.813 18.256 123.205 18.36 123.477 18.568C123.749 18.76 123.933 19.024 124.029 19.36C124.125 19.696 124.157 20.064 124.125 20.464C124.109 20.848 124.053 21.232 123.957 21.616L121.533 31ZM127.677 18.784C127.357 18.784 127.013 18.88 126.645 19.072C126.277 19.264 125.901 19.608 125.517 20.104C125.133 20.6 124.725 21.288 124.293 22.168C123.877 23.048 123.445 24.176 122.997 25.552C122.565 26.912 122.117 28.56 121.653 30.496L122.181 27.256C122.693 25.496 123.157 24.04 123.573 22.888C123.989 21.736 124.405 20.824 124.821 20.152C125.253 19.464 125.701 18.976 126.165 18.688C126.645 18.4 127.189 18.256 127.797 18.256C128.421 18.256 128.901 18.44 129.237 18.808C129.573 19.176 129.741 19.64 129.741 20.2C129.741 20.648 129.637 21.064 129.429 21.448C129.237 21.816 128.965 22.12 128.613 22.36C128.277 22.584 127.893 22.696 127.461 22.696C126.997 22.696 126.637 22.576 126.381 22.336C126.125 22.08 125.997 21.72 125.997 21.256C125.997 20.872 126.085 20.52 126.261 20.2C126.437 19.864 126.677 19.576 126.981 19.336C127.285 19.096 127.621 18.936 127.989 18.856C127.941 18.84 127.893 18.824 127.845 18.808C127.797 18.792 127.741 18.784 127.677 18.784Z" fill="white"/>
<path d="M23.968 28.5531C26.9542 31.5393 26.9423 36.5967 22.9624 38.0091C22.1832 38.2856 21.382 38.5067 20.5645 38.6694C17.2265 39.3333 13.7667 38.9925 10.6224 37.6902C7.4782 36.3878 4.79076 34.1822 2.89998 31.3525C1.0092 28.5227 -1.45785e-07 25.1958 0 21.7925C1.45785e-07 18.3892 1.0092 15.0623 2.89998 12.2326C4.79076 9.4028 7.4782 7.1973 10.6225 5.8949C13.7667 4.5925 17.2265 4.2518 20.5645 4.9157C21.382 5.0783 22.1832 5.2994 22.9624 5.576C26.9423 6.9884 26.9542 12.0458 23.968 15.032L19.3584 19.6416C18.918 20.082 18.1917 20.0365 17.5809 19.915C17.2096 19.8412 16.8247 19.8791 16.4749 20.024C16.1251 20.1689 15.8261 20.4142 15.6158 20.729C15.4055 21.0438 15.2932 21.4139 15.2932 21.7925C15.2932 22.1711 15.4055 22.5412 15.6158 22.856C15.8261 23.1709 16.1251 23.4162 16.4749 23.5611C16.8247 23.706 17.2096 23.7439 17.5809 23.67C18.1917 23.5485 18.918 23.5031 19.3584 23.9435L23.968 28.5531Z" fill="url(#paint0_linear_471_1342)"/>
<defs>
<linearGradient id="paint0_linear_471_1342" x1="8.60374" y1="6.1514" x2="8.60374" y2="36.6946" gradientUnits="userSpaceOnUse">
<stop stop-color="#64C2DB"/>
<stop offset="0.510417" stop-color="#7476ED"/>
<stop offset="1" stop-color="#E56F8C"/>
</linearGradient>
</defs>
</svg>
