<svg width="72" height="40" viewBox="0 0 72 40" fill="none" xmlns="http://www.w3.org/2000/svg">
<g id="icon:android">
<path id="icon:android_2" d="M52.5571 29.8846C51.9729 29.8847 51.4018 29.7114 50.9159 29.3867C50.4301 29.0619 50.0514 28.6003 49.8278 28.0601C49.6041 27.5199 49.5455 26.9255 49.6594 26.352C49.7732 25.7785 50.0545 25.2516 50.4675 24.8381C50.8805 24.4246 51.4068 24.1429 51.9797 24.0287C52.5527 23.9145 53.1466 23.973 53.6864 24.1966C54.2262 24.4203 54.6876 24.7991 55.0122 25.2853C55.3369 25.7714 55.5102 26.3429 55.5103 26.9277C55.5095 27.7114 55.1981 28.4629 54.6444 29.0172C54.0908 29.5715 53.3402 29.8834 52.5571 29.8846ZM19.911 29.8846C19.3268 29.8847 18.7556 29.7114 18.2698 29.3867C17.784 29.0619 17.4053 28.6003 17.1817 28.0601C16.958 27.5199 16.8994 26.9255 17.0133 26.352C17.1271 25.7785 17.4083 25.2516 17.8214 24.8381C18.2344 24.4246 18.7606 24.1429 19.3336 24.0287C19.9066 23.9145 20.5005 23.973 21.0403 24.1966C21.5801 24.4203 22.0415 24.7991 22.3661 25.2853C22.6908 25.7714 22.8641 26.3429 22.8642 26.9277C22.8635 27.7115 22.5521 28.463 21.9985 29.0173C21.4448 29.5717 20.6941 29.8836 19.911 29.8846ZM53.6163 12.0777L59.5189 1.8453C59.5996 1.70554 59.6521 1.55122 59.6732 1.39118C59.6943 1.23113 59.6838 1.06848 59.6421 0.912517C59.6005 0.756553 59.5285 0.610328 59.4304 0.482192C59.3323 0.354056 59.2099 0.246517 59.0703 0.165716C58.9306 0.0849149 58.7765 0.0324337 58.6166 0.011269C58.4566 -0.00989568 58.2941 0.000670515 58.1383 0.0423643C57.9825 0.0840582 57.8364 0.156063 57.7084 0.254268C57.5803 0.352473 57.4729 0.474954 57.3922 0.614719L51.415 10.9763C46.8443 8.88841 41.7109 7.7258 36.2335 7.7258C30.7561 7.7258 25.6232 8.89009 21.0525 10.9763L15.0759 0.614719C14.9953 0.474918 14.8879 0.352378 14.76 0.254098C14.6321 0.155817 14.486 0.0837199 14.3303 0.0419227C14.1745 0.000125386 14.012 -0.0105534 13.8521 0.0104959C13.6922 0.0315452 13.538 0.0839105 13.3983 0.164602C13.2587 0.245293 13.1362 0.35273 13.038 0.480779C12.9398 0.608828 12.8678 0.754981 12.826 0.910893C12.7843 1.06681 12.7736 1.22942 12.7946 1.38946C12.8157 1.5495 12.868 1.70383 12.9486 1.84363L18.8518 12.0777C8.71576 17.5955 1.7829 27.8658 0.768799 40H71.6993C70.684 27.8658 63.7517 17.5955 53.6163 12.0777Z" fill="#3DDC84"/>
</g>
</svg>
