<svg width="25" height="25" viewBox="0 0 25 25" fill="none" xmlns="http://www.w3.org/2000/svg">
<g id="Group">
<path id="Vector" fill-rule="evenodd" clip-rule="evenodd" d="M16.3614 11.7635C16.5567 11.9589 16.6664 12.2238 16.6664 12.5C16.6664 12.7762 16.5567 13.0411 16.3614 13.2365L10.4687 19.1292C10.3726 19.2287 10.2577 19.308 10.1306 19.3626C10.0035 19.4172 9.86683 19.4459 9.72851 19.4471C9.5902 19.4483 9.45304 19.422 9.32502 19.3696C9.197 19.3172 9.0807 19.2399 8.98289 19.1421C8.88509 19.0443 8.80774 18.928 8.75536 18.8C8.70299 18.6719 8.67663 18.5348 8.67783 18.3965C8.67904 18.2582 8.70777 18.1215 8.76237 17.9944C8.81696 17.8673 8.89631 17.7523 8.9958 17.6563L14.1521 12.5L8.9958 7.34376C8.80606 7.14729 8.70106 6.88417 8.70343 6.61105C8.70581 6.33792 8.81536 6.07666 9.00849 5.88353C9.20163 5.69039 9.46289 5.58084 9.73601 5.57847C10.0091 5.5761 10.2723 5.68109 10.4687 5.87084L16.3614 11.7635Z" fill="black"/>
</g>
</svg>
