<svg width="25" height="25" viewBox="0 0 25 25" fill="none" xmlns="http://www.w3.org/2000/svg">
<g id="Group">
<path id="Vector" fill-rule="evenodd" clip-rule="evenodd" d="M8.63857 11.7635C8.44329 11.9589 8.33359 12.2238 8.33359 12.5C8.33359 12.7762 8.44329 13.0411 8.63857 13.2365L14.5313 19.1292C14.6274 19.2287 14.7423 19.308 14.8694 19.3626C14.9965 19.4172 15.1332 19.4459 15.2715 19.4471C15.4098 19.4483 15.547 19.422 15.675 19.3696C15.803 19.3172 15.9193 19.2399 16.0171 19.1421C16.1149 19.0443 16.1923 18.928 16.2446 18.8C16.297 18.6719 16.3234 18.5348 16.3222 18.3965C16.321 18.2582 16.2922 18.1215 16.2376 17.9944C16.183 17.8673 16.1037 17.7523 16.0042 17.6563L10.8479 12.5L16.0042 7.34376C16.1939 7.14729 16.2989 6.88417 16.2966 6.61105C16.2942 6.33792 16.1846 6.07666 15.9915 5.88353C15.7984 5.69039 15.5371 5.58084 15.264 5.57847C14.9909 5.5761 14.7277 5.68109 14.5313 5.87084L8.63857 11.7635Z" fill="black"/>
</g>
</svg>
