<svg width="17" height="17" viewBox="0 0 17 17" fill="none" xmlns="http://www.w3.org/2000/svg">
<g id="icon:cancel">
<path id="icon:cancel_2" d="M5.62 12.5L8.5 9.62L11.38 12.5L12.5 11.38L9.62 8.5L12.5 5.62L11.38 4.5L8.5 7.38L5.62 4.5L4.5 5.62L7.38 8.5L4.5 11.38L5.62 12.5ZM8.5 16.5C7.39333 16.5 6.35333 16.2899 5.38 15.8696C4.40667 15.4493 3.56 14.8795 2.84 14.16C2.12 13.44 1.55013 12.5933 1.1304 11.62C0.710667 10.6467 0.500533 9.60667 0.5 8.5C0.5 7.39333 0.710133 6.35333 1.1304 5.38C1.55067 4.40667 2.12053 3.56 2.84 2.84C3.56 2.12 4.40667 1.55013 5.38 1.1304C6.35333 0.710667 7.39333 0.500533 8.5 0.5C9.60667 0.5 10.6467 0.710133 11.62 1.1304C12.5933 1.55067 13.44 2.12053 14.16 2.84C14.88 3.56 15.4501 4.40667 15.8704 5.38C16.2907 6.35333 16.5005 7.39333 16.5 8.5C16.5 9.60667 16.2899 10.6467 15.8696 11.62C15.4493 12.5933 14.8795 13.44 14.16 14.16C13.44 14.88 12.5933 15.4501 11.62 15.8704C10.6467 16.2907 9.60667 16.5005 8.5 16.5Z" fill="white"/>
</g>
</svg>
