<svg width="43" height="50" viewBox="0 0 43 50" fill="none" xmlns="http://www.w3.org/2000/svg">
<g id="icon:download">
<path id="icon:download_2" d="M35.013 17.6471H30.3366V2.94118C30.3366 1.32353 29.013 0 27.3954 0H15.6307C14.013 0 12.6895 1.32353 12.6895 2.94118V17.6471H8.01304C5.39539 17.6471 4.07186 20.8235 5.9248 22.6765L19.4248 36.1765C20.5719 37.3235 22.4248 37.3235 23.5719 36.1765L37.0719 22.6765C38.9248 20.8235 37.6307 17.6471 35.013 17.6471ZM0.924805 47.0588C0.924805 48.6765 2.24833 50 3.86598 50H39.1601C40.7777 50 42.1013 48.6765 42.1013 47.0588C42.1013 45.4412 40.7777 44.1176 39.1601 44.1176H3.86598C2.24833 44.1176 0.924805 45.4412 0.924805 47.0588Z" fill="white"/>
</g>
</svg>
