<svg width="43" height="50" viewBox="0 0 43 50" fill="none" xmlns="http://www.w3.org/2000/svg">
<g id="icon:download">
<path id="icon:download_2" d="M35.0126 17.6471H30.3361V2.94118C30.3361 1.32353 29.0126 0 27.3949 0H15.6302C14.0126 0 12.689 1.32353 12.689 2.94118V17.6471H8.01255C5.3949 17.6471 4.07137 20.8235 5.92432 22.6765L19.4243 36.1765C20.5714 37.3235 22.4243 37.3235 23.5714 36.1765L37.0714 22.6765C38.9243 20.8235 37.6302 17.6471 35.0126 17.6471ZM0.924316 47.0588C0.924316 48.6765 2.24785 50 3.86549 50H39.1596C40.7773 50 42.1008 48.6765 42.1008 47.0588C42.1008 45.4412 40.7773 44.1176 39.1596 44.1176H3.86549C2.24785 44.1176 0.924316 45.4412 0.924316 47.0588Z" fill="#07203F"/>
</g>
</svg>
