<svg width="44" height="25" viewBox="0 0 44 25" fill="none" xmlns="http://www.w3.org/2000/svg">
<g id="icon:filter">
<path id="icon:filter_2" d="M29.6252 23.4413C29.7329 23.8579 29.4636 24.3023 28.8443 24.5939C28.5951 24.7226 28.2992 24.8248 27.9734 24.8944C27.6477 24.9641 27.2984 25 26.9458 25C26.5931 25 26.2438 24.9641 25.9181 24.8944C25.5923 24.8248 25.2964 24.7226 25.0472 24.5939L14.2486 19.0252C13.9549 18.8771 13.7316 18.696 13.5961 18.4961C13.4606 18.2961 13.4166 18.0827 13.4676 17.8726V10.7624L0.568498 2.24969C0.131188 1.96019 -0.0661345 1.5932 0.0196464 1.2289C0.105427 0.864607 0.467338 0.532631 1.0263 0.305514C1.53795 0.111096 2.10347 0 2.69591 0H40.3969C40.9894 0 41.5549 0.111096 42.0666 0.305514C42.6255 0.532631 42.9874 0.864607 43.0732 1.2289C43.159 1.5932 42.9617 1.96019 42.5244 2.24969L29.6252 10.7624V23.4413ZM8.18949 2.7774L18.8535 9.80422V17.4699L24.2394 20.2473V9.79034L34.9034 2.7774H8.18949Z" fill="white"/>
</g>
</svg>
