<svg width="41" height="36" viewBox="0 0 41 36" fill="none" xmlns="http://www.w3.org/2000/svg">
<g id="icon:ghost">
<g id="bg" filter="url(#filter0_d_139_3842)">
<ellipse cx="20.0365" cy="17.7018" rx="15.0203" ry="12.5" fill="#F2F2F2"/>
<path d="M34.5568 17.7018C34.5568 24.2471 28.1458 29.7018 20.0365 29.7018C11.9273 29.7018 5.51624 24.2471 5.51624 17.7018C5.51624 11.1564 11.9273 5.70178 20.0365 5.70178C28.1458 5.70178 34.5568 11.1564 34.5568 17.7018Z" stroke="#07203F"/>
</g>
<path id="icon:ghost_2" d="M19.5559 7.20178C16.9745 7.20178 14.4988 8.05517 12.6735 9.57422C10.8482 11.0933 9.82275 13.1535 9.82275 15.3018V25.2018L13.0671 22.5018L16.3115 25.2018L19.5559 22.5018L22.8003 25.2018L26.0447 22.5018L29.2891 25.2018V15.3018C29.2891 13.1535 28.2636 11.0933 26.4383 9.57422C24.613 8.05517 22.1373 7.20178 19.5559 7.20178ZM27.1261 20.8548L26.0447 19.9548L24.5198 21.2328L22.8003 22.6548L21.0808 21.2328L19.5559 19.9548L18.031 21.2328L16.3115 22.6548L14.592 21.2328L13.0671 19.9548L11.9857 20.8548V15.3018C11.9857 11.8278 15.3815 9.00178 19.5559 9.00178C23.7303 9.00178 27.1261 11.8278 27.1261 15.3018V20.8548ZM18.4744 14.4018C18.4744 15.4008 17.5119 16.2018 16.3115 16.2018C15.1111 16.2018 14.1486 15.4008 14.1486 14.4018C14.1486 13.4028 15.1219 12.6018 16.3115 12.6018C17.5011 12.6018 18.4744 13.4118 18.4744 14.4018ZM24.9632 14.4018C24.9632 15.4008 24.0007 16.2018 22.8003 16.2018C21.5999 16.2018 20.6374 15.4008 20.6374 14.4018C20.6374 13.4028 21.6107 12.6018 22.8003 12.6018C23.9899 12.6018 24.9632 13.4118 24.9632 14.4018Z" fill="#07203F"/>
</g>
<defs>
<filter id="filter0_d_139_3842" x="0.0162354" y="0.201782" width="40.0406" height="35" filterUnits="userSpaceOnUse" color-interpolation-filters="sRGB">
<feFlood flood-opacity="0" result="BackgroundImageFix"/>
<feColorMatrix in="SourceAlpha" type="matrix" values="0 0 0 0 0 0 0 0 0 0 0 0 0 0 0 0 0 0 127 0" result="hardAlpha"/>
<feOffset/>
<feGaussianBlur stdDeviation="2.5"/>
<feComposite in2="hardAlpha" operator="out"/>
<feColorMatrix type="matrix" values="0 0 0 0 0 0 0 0 0 0 0 0 0 0 0 0 0 0 1 0"/>
<feBlend mode="normal" in2="BackgroundImageFix" result="effect1_dropShadow_139_3842"/>
<feBlend mode="normal" in="SourceGraphic" in2="effect1_dropShadow_139_3842" result="shape"/>
</filter>
</defs>
</svg>
