<svg width="40" height="25" viewBox="0 0 40 25" fill="none" xmlns="http://www.w3.org/2000/svg">
<g id="hamburger-menu">
<path id="hamburger-menu_2" d="M30.8248 0.208288C25.3584 -0.933432 25.3259 2.99072 19.9809 2.99072C15.3566 2.99072 15.1831 -0.888969 9.1369 0.208288C-0.763592 1.99829 -2.28568 23.7808 2.96656 24.9224C5.88256 25.5559 7.35168 22.1743 11.2071 19.7472C11.7794 20.1702 12.4443 20.4508 13.1466 20.5656C13.849 20.6804 14.5686 20.6261 15.2459 20.4072C15.9231 20.1884 16.5384 19.8112 17.0407 19.3071C17.5431 18.803 17.918 18.1864 18.1345 17.5084C18.7479 17.4552 19.3633 17.4288 19.979 17.4293C20.6274 17.4293 21.233 17.4571 21.8137 17.5073C22.0307 18.1854 22.4063 18.802 22.9092 19.3059C23.4122 19.8099 24.0281 20.1866 24.7057 20.405C25.3834 20.6233 26.1034 20.6769 26.8059 20.5614C27.5085 20.4459 28.1734 20.1645 28.7454 19.7407C32.6056 22.1679 34.0747 25.553 36.9916 24.9187C42.2429 23.7808 40.682 2.26628 30.8248 0.208288ZM10.5488 11.3452H8.27837V9.03671H5.96871V6.76638H8.2782V4.45698H10.5486V6.76543H12.8571V9.03584H10.5486V11.3443L10.5488 11.3452ZM13.8682 19.1276C13.2784 19.1276 12.7019 18.9527 12.2116 18.6251C11.7212 18.2974 11.3391 17.8317 11.1134 17.2869C10.8877 16.742 10.8287 16.1425 10.9437 15.564C11.0588 14.9856 11.3428 14.4543 11.7598 14.0373C12.1768 13.6203 12.7081 13.3363 13.2866 13.2213C13.865 13.1062 14.4645 13.1653 15.0094 13.391C15.5542 13.6167 16.0199 13.9989 16.3476 14.4892C16.6752 14.9796 16.8501 15.5561 16.8501 16.1458C16.8503 16.9366 16.5364 17.6951 15.9774 18.2545C15.4184 18.8139 14.66 19.1283 13.8692 19.1285L13.8682 19.1276ZM26.0784 19.1276C25.4887 19.1271 24.9125 18.9518 24.4224 18.6237C23.9324 18.2957 23.5506 17.8298 23.3254 17.2848C23.1001 16.7399 23.0415 16.1404 23.157 15.5621C23.2724 14.9838 23.5567 14.4528 23.9739 14.0361C24.3911 13.6193 24.9225 13.3357 25.501 13.221C26.0794 13.1062 26.6788 13.1656 27.2235 13.3915C27.7682 13.6174 28.2336 13.9998 28.5611 14.4902C28.8885 14.9806 29.0631 15.5571 29.0629 16.1468C29.0629 16.5386 28.9857 16.9265 28.8357 17.2885C28.6856 17.6504 28.4657 17.9793 28.1886 18.2562C27.9114 18.5331 27.5823 18.7527 27.2203 18.9023C26.8582 19.052 26.4701 19.1289 26.0783 19.1285L26.0784 19.1276ZM28.1353 9.40492C27.8377 9.40497 27.5468 9.31678 27.2994 9.1515C27.052 8.98621 26.8591 8.75126 26.7452 8.47637C26.6313 8.20147 26.6015 7.89896 26.6595 7.60712C26.7176 7.31528 26.8609 7.0472 27.0713 6.83679C27.2817 6.62639 27.5497 6.4831 27.8416 6.42506C28.1334 6.36703 28.4359 6.39684 28.7108 6.51073C28.9857 6.62463 29.2207 6.81749 29.386 7.06492C29.5513 7.31236 29.6394 7.60325 29.6394 7.90081C29.6394 8.29979 29.4809 8.68244 29.1988 8.96456C28.9166 9.24668 28.534 9.40518 28.135 9.40518L28.1353 9.40492ZM31.3934 12.6633C31.0959 12.6633 30.805 12.5751 30.5576 12.4098C30.3102 12.2445 30.1174 12.0095 30.0035 11.7347C29.8896 11.4598 29.8598 11.1573 29.9179 10.8655C29.9759 10.5737 30.1192 10.3056 30.3295 10.0952C30.5399 9.88479 30.808 9.74149 31.0998 9.68343C31.3916 9.62536 31.6941 9.65514 31.969 9.76899C32.2439 9.88283 32.4788 10.0756 32.6441 10.323C32.8095 10.5704 32.8977 10.8613 32.8977 11.1588C32.8979 11.3567 32.8589 11.5528 32.7831 11.7356C32.7074 11.9185 32.5962 12.0846 32.4562 12.2245C32.3161 12.3643 32.1497 12.4751 31.9667 12.5506C31.7837 12.626 31.5877 12.6646 31.3897 12.6641L31.3934 12.6633ZM31.3934 6.14589C31.0959 6.14591 30.805 6.05769 30.5576 5.8924C30.3102 5.72711 30.1174 5.49216 30.0035 5.21727C29.8896 4.94239 29.8598 4.63991 29.9179 4.34808C29.9759 4.05625 30.1192 3.78819 30.3296 3.57779C30.54 3.36739 30.808 3.22411 31.0998 3.16605C31.3917 3.108 31.6941 3.13779 31.969 3.25165C32.2439 3.36551 32.4789 3.55833 32.6442 3.80572C32.8095 4.05312 32.8977 4.34398 32.8977 4.64152C32.8978 4.83945 32.8589 5.03547 32.7831 5.21833C32.7073 5.40118 32.5962 5.56729 32.4561 5.70712C32.316 5.84696 32.1497 5.95777 31.9667 6.03321C31.7837 6.10865 31.5876 6.14724 31.3897 6.14676L31.3934 6.14589ZM34.6516 9.40405C34.3541 9.40405 34.0632 9.31582 33.8158 9.15052C33.5684 8.98522 33.3756 8.75026 33.2617 8.47538C33.1479 8.20049 33.1181 7.89801 33.1761 7.60619C33.2342 7.31437 33.3775 7.04631 33.5878 6.83592C33.7982 6.62553 34.0663 6.48225 34.3581 6.42421C34.6499 6.36616 34.9524 6.39595 35.2273 6.50982C35.5022 6.62368 35.7371 6.8165 35.9024 7.06389C36.0677 7.31129 36.156 7.60214 36.156 7.89968C36.1561 8.09764 36.1172 8.29367 36.0414 8.47655C35.9656 8.65943 35.8545 8.82556 35.7143 8.9654C35.5742 9.10525 35.4079 9.21606 35.2249 9.2915C35.0419 9.36694 34.8457 9.40551 34.6478 9.40501L34.6516 9.40405Z" fill="#FA0A0C"/>
</g>
</svg>
