<svg width="53" height="51" viewBox="0 0 53 51" fill="none" xmlns="http://www.w3.org/2000/svg">
<g id="hamburger-menu:active">
<path id="Vector" d="M31.0323 15.8334C31.2396 16.1296 31.3205 16.4963 31.2572 16.8529C31.1939 17.2094 30.9915 17.5266 30.6946 17.7345C30.3976 17.9425 30.0305 18.0243 29.6739 17.9619C29.3173 17.8995 29.0005 17.698 28.7932 17.4018C28.5858 17.1055 28.5049 16.7388 28.5682 16.3823C28.6316 16.0257 28.834 15.7086 29.1309 15.5006C29.4278 15.2926 29.7949 15.2108 30.1515 15.2732C30.5081 15.3356 30.8249 15.5371 31.0323 15.8334ZM30.0191 21.5369C30.3161 21.3289 30.5185 21.0118 30.5818 20.6552C30.6451 20.2987 30.5642 19.9319 30.3569 19.6357C30.1495 19.3395 29.8327 19.138 29.4761 19.0756C29.1195 19.0132 28.7524 19.0949 28.4555 19.3029C28.1585 19.5109 27.9562 19.8281 27.8928 20.1846C27.8295 20.5411 27.9104 20.9079 28.1178 21.2041C28.3251 21.5003 28.6419 21.7018 28.9985 21.7642C29.3551 21.8266 29.7222 21.7449 30.0191 21.5369ZM34.8351 16.4989C35.0424 16.7952 35.1233 17.1619 35.06 17.5184C34.9967 17.875 34.7943 18.1921 34.4973 18.4001C34.2004 18.6081 33.8333 18.6899 33.4767 18.6275C33.1201 18.565 32.8033 18.3636 32.596 18.0673C32.3886 17.7711 32.3077 17.4044 32.371 17.0478C32.4344 16.6913 32.6367 16.3741 32.9337 16.1662C33.2306 15.9582 33.5977 15.8764 33.9543 15.9388C34.3109 16.0012 34.6277 16.2027 34.8351 16.4989ZM33.8219 22.2024C34.1188 21.9945 34.3212 21.6773 34.3846 21.3208C34.4479 20.9642 34.367 20.5975 34.1596 20.3013C33.9523 20.005 33.6355 19.8035 33.2789 19.7411C32.9223 19.6787 32.5552 19.7605 32.2582 19.9685C31.9613 20.1765 31.7589 20.4936 31.6956 20.8502C31.6323 21.2067 31.7132 21.5734 31.9205 21.8697C32.1279 22.1659 32.4447 22.3674 32.8013 22.4298C33.1579 22.4922 33.525 22.4104 33.8219 22.2024ZM14.5767 25.6951L16.8158 24.1267L18.3795 26.3607L20.6186 24.7923L22.1823 27.0262L19.9432 28.5946L21.5069 30.8286L19.2678 32.397L17.7041 30.163L15.465 31.7314L13.9013 29.4975L16.1404 27.9291L14.5767 25.6951Z" fill="white"/>
<path id="Vector_2" d="M7.78263 22.9053C7.64505 22.7902 7.53159 22.649 7.44877 22.4899C7.36595 22.3308 7.31538 22.1568 7.29996 21.9779C7.28455 21.7991 7.30459 21.6188 7.35893 21.4475C7.41328 21.2762 7.50086 21.1173 7.61667 20.9797L11.1341 16.7902C11.2552 16.6464 11.4046 16.5291 11.5729 16.4455C11.7413 16.3619 11.925 16.3138 12.1126 16.3043C12.3001 16.2948 12.4876 16.3241 12.6631 16.3903C12.8387 16.4565 12.9987 16.5582 13.133 16.689C14.4766 15.4846 15.974 14.3091 17.5263 13.2216C19.1391 12.0918 20.8228 11.0489 22.4723 10.1765C22.3912 10.005 22.3469 9.81828 22.3422 9.62842C22.3374 9.43857 22.3724 9.24971 22.4447 9.07392C22.5171 8.89813 22.6254 8.73928 22.7625 8.60752C22.8997 8.47575 23.0628 8.37397 23.2414 8.30868L28.3795 6.43477C28.5755 6.3632 28.7851 6.33738 28.9924 6.3593C29.1997 6.38121 29.3991 6.45028 29.5754 6.56121C29.7516 6.67214 29.9 6.82199 30.0092 6.99927C30.1184 7.17655 30.1855 7.37657 30.2053 7.58399C30.6597 7.56546 31.0984 7.59125 31.5054 7.6625C33.0576 7.93419 34.8952 8.78539 36.7302 9.90484C38.5937 11.041 40.5608 12.5209 42.3911 14.1534C44.2213 15.7859 45.9372 17.5984 47.283 19.4069C48.6133 21.1931 49.6569 23.0801 50.0055 24.8612C50.1577 25.6638 50.0522 26.4946 49.7041 27.235C49.356 27.9753 48.783 28.5874 48.067 28.9838C46.5376 29.8321 44.9531 29.8529 43.4686 29.6303C42.5569 29.4962 41.5348 29.233 40.5493 28.984C40.0355 28.8509 39.5325 28.7236 39.0633 28.616C36.1748 27.9613 33.0972 27.709 29.4527 30.2621C25.8082 32.8152 24.9926 35.7948 24.6196 38.7342C24.558 39.2137 24.5077 39.7286 24.457 40.2571C24.3538 41.2687 24.2499 42.3175 24.0656 43.2227C23.7685 44.6966 23.2055 46.1769 21.8856 47.3247C21.2684 47.8622 20.4975 48.1915 19.6831 48.2656C18.8686 48.3396 18.0522 48.1546 17.3504 47.737C15.7945 46.8018 14.3797 45.1714 13.1563 43.3137C11.9179 41.4298 10.8084 39.1959 9.89728 36.9162C8.98994 34.6373 8.27496 32.2802 7.84288 30.1413C7.41905 28.0332 7.24804 26.0145 7.52149 24.4639C7.61374 23.9722 7.76339 23.4929 7.96737 23.0357C7.90168 22.9968 7.84093 22.9546 7.78263 22.9053ZM12.9878 20.6313C11.3127 22.421 10.3902 23.9266 10.2134 24.9332C10.0269 25.9832 10.1234 27.6044 10.5227 29.5963C10.9746 31.75 11.6153 33.8592 12.4373 35.8997C13.2418 37.964 14.2481 39.9434 15.4417 41.8093C16.5735 43.5313 17.7205 44.7697 18.7642 45.3975C18.9716 45.517 19.2113 45.5685 19.4498 45.5448C19.6882 45.5211 19.9135 45.4235 20.0939 45.2655C20.7732 44.6764 21.149 43.8635 21.3896 42.6857C21.5485 41.9015 21.6239 41.1126 21.7129 40.2142C21.7668 39.6568 21.8258 39.0591 21.9101 38.3972C22.3321 35.0604 23.3606 31.2021 27.89 28.0292C32.4193 24.8563 36.395 25.209 39.6735 25.9534C40.324 26.1007 40.9055 26.2495 41.4475 26.3895C42.3195 26.6147 43.0886 26.8121 43.8795 26.9309C45.0658 27.1091 45.9578 27.0338 46.7473 26.5974C46.9575 26.4814 47.1262 26.3026 47.2298 26.086C47.3333 25.8695 47.3665 25.6262 47.3245 25.3902C47.0895 24.1958 46.3225 22.6946 45.0906 21.0394C43.7463 19.2791 42.2312 17.656 40.5675 16.1937C38.9321 14.723 37.1701 13.3993 35.3019 12.2378C33.5675 11.1811 32.0739 10.5353 31.0277 10.3522C30.0218 10.1741 28.2921 10.5264 26.0382 11.4891C23.8542 12.4229 21.4113 13.831 19.0906 15.4567C16.77 17.0824 14.6118 18.8974 12.9878 20.6313Z" fill="white"/>
</g>
</svg>
