<svg width="50" height="50" viewBox="0 0 50 50" fill="none" xmlns="http://www.w3.org/2000/svg">
<g id="icon:info">
<path id="Vector" opacity="0.2" d="M48.0767 24.9998C48.0767 29.564 46.7233 34.0256 44.1875 37.8206C41.6518 41.6156 38.0477 44.5734 33.8309 46.3201C29.6142 48.0667 24.9742 48.5237 20.4977 47.6333C16.0212 46.7428 11.9093 44.545 8.68193 41.3176C5.45457 38.0902 3.25671 33.9783 2.36628 29.5019C1.47585 25.0254 1.93285 20.3854 3.67949 16.1686C5.42613 11.9519 8.38395 8.34774 12.1789 5.81201C15.9739 3.27629 20.4356 1.92285 24.9998 1.92285C31.1202 1.92285 36.9899 4.35416 41.3176 8.68192C45.6454 13.0097 48.0767 18.8794 48.0767 24.9998Z" fill="white"/>
<path id="Vector_2" d="M28.8462 36.5385C28.8462 37.0485 28.6436 37.5376 28.2829 37.8983C27.9223 38.2589 27.4331 38.4615 26.9231 38.4615C25.903 38.4615 24.9247 38.0563 24.2034 37.335C23.4821 36.6137 23.0769 35.6354 23.0769 34.6154V25C22.5669 25 22.0778 24.7974 21.7171 24.4367C21.3565 24.0761 21.1539 23.587 21.1539 23.0769C21.1539 22.5669 21.3565 22.0777 21.7171 21.7171C22.0778 21.3565 22.5669 21.1538 23.0769 21.1538C24.097 21.1538 25.0753 21.5591 25.7966 22.2804C26.5179 23.0016 26.9231 23.9799 26.9231 25V34.6154C27.4331 34.6154 27.9223 34.818 28.2829 35.1786C28.6436 35.5393 28.8462 36.0284 28.8462 36.5385ZM50 25C50 29.9445 48.5338 34.778 45.7867 38.8892C43.0397 43.0005 39.1352 46.2048 34.5671 48.097C29.9989 49.9892 24.9723 50.4842 20.1227 49.5196C15.2732 48.555 10.8187 46.174 7.32234 42.6777C3.82603 39.1814 1.44501 34.7268 0.480379 29.8773C-0.484251 25.0277 0.0108321 20.0011 1.90302 15.4329C3.79521 10.8648 6.99952 6.96029 11.1108 4.21326C15.222 1.46622 20.0555 0 25 0C31.6283 0.00699956 37.983 2.64317 42.6699 7.33006C47.3568 12.017 49.993 18.3717 50 25ZM46.1538 25C46.1538 20.8162 44.9132 16.7263 42.5888 13.2475C40.2644 9.76882 36.9606 7.05748 33.0952 5.45639C29.2299 3.85531 24.9765 3.43639 20.8731 4.25262C16.7697 5.06884 13.0004 7.08355 10.042 10.042C7.08356 13.0004 5.06885 16.7696 4.25263 20.8731C3.4364 24.9765 3.85532 29.2299 5.4564 33.0952C7.05749 36.9606 9.76883 40.2644 13.2476 42.5888C16.7263 44.9132 20.8162 46.1538 25 46.1538C30.6084 46.1475 35.9853 43.9167 39.951 39.951C43.9167 35.9853 46.1475 30.6084 46.1538 25ZM24.0385 17.3077C24.609 17.3077 25.1667 17.1385 25.6411 16.8215C26.1154 16.5046 26.4852 16.0541 26.7035 15.527C26.9218 14.9999 26.979 14.4199 26.8677 13.8603C26.7564 13.3008 26.4816 12.7868 26.0782 12.3833C25.6748 11.9799 25.1608 11.7052 24.6012 11.5939C24.0417 11.4826 23.4617 11.5397 22.9346 11.758C22.4075 11.9764 21.957 12.3461 21.64 12.8205C21.323 13.2948 21.1539 13.8526 21.1539 14.4231C21.1539 15.1881 21.4578 15.9218 21.9987 16.4628C22.5397 17.0038 23.2734 17.3077 24.0385 17.3077Z" fill="white"/>
</g>
</svg>
