<svg width="26" height="25" viewBox="0 0 26 25" fill="none" xmlns="http://www.w3.org/2000/svg">
<g id="icon-instagram">
<path id="Vector" d="M8.36686 2.08301H17.1169C20.4502 2.08301 23.1585 4.79134 23.1585 8.12468V16.8747C23.1585 18.477 22.522 20.0137 21.389 21.1468C20.2559 22.2798 18.7192 22.9163 17.1169 22.9163H8.36686C5.03353 22.9163 2.3252 20.208 2.3252 16.8747V8.12468C2.3252 6.52233 2.96173 4.9856 4.09476 3.85257C5.22779 2.71954 6.76451 2.08301 8.36686 2.08301ZM8.15853 4.16634C7.16397 4.16634 6.21014 4.56143 5.50688 5.26469C4.80362 5.96795 4.40853 6.92178 4.40853 7.91634V17.083C4.40853 19.1559 6.08561 20.833 8.15853 20.833H17.3252C18.3198 20.833 19.2736 20.4379 19.9768 19.7347C20.6801 19.0314 21.0752 18.0776 21.0752 17.083V7.91634C21.0752 5.84342 19.3981 4.16634 17.3252 4.16634H8.15853ZM18.2106 5.72884C18.5559 5.72884 18.8871 5.86602 19.1313 6.11021C19.3755 6.3544 19.5127 6.68559 19.5127 7.03092C19.5127 7.37626 19.3755 7.70745 19.1313 7.95164C18.8871 8.19583 18.5559 8.33301 18.2106 8.33301C17.8653 8.33301 17.5341 8.19583 17.2899 7.95164C17.0457 7.70745 16.9085 7.37626 16.9085 7.03092C16.9085 6.68559 17.0457 6.3544 17.2899 6.11021C17.5341 5.86602 17.8653 5.72884 18.2106 5.72884ZM12.7419 7.29134C14.1232 7.29134 15.448 7.84008 16.4247 8.81683C17.4015 9.79358 17.9502 11.1183 17.9502 12.4997C17.9502 13.881 17.4015 15.2058 16.4247 16.1825C15.448 17.1593 14.1232 17.708 12.7419 17.708C11.3605 17.708 10.0358 17.1593 9.05901 16.1825C8.08226 15.2058 7.53353 13.881 7.53353 12.4997C7.53353 11.1183 8.08226 9.79358 9.05901 8.81683C10.0358 7.84008 11.3605 7.29134 12.7419 7.29134ZM12.7419 9.37467C11.9131 9.37467 11.1182 9.70391 10.5322 10.29C9.9461 10.876 9.61686 11.6709 9.61686 12.4997C9.61686 13.3285 9.9461 14.1233 10.5322 14.7094C11.1182 15.2954 11.9131 15.6247 12.7419 15.6247C13.5707 15.6247 14.3655 15.2954 14.9516 14.7094C15.5376 14.1233 15.8669 13.3285 15.8669 12.4997C15.8669 11.6709 15.5376 10.876 14.9516 10.29C14.3655 9.70391 13.5707 9.37467 12.7419 9.37467Z" fill="white"/>
</g>
</svg>
