<svg width="26" height="25" viewBox="0 0 26 25" fill="none" xmlns="http://www.w3.org/2000/svg">
<g id="icon-instagram">
<path id="Vector" d="M8.3674 2.08337H17.1174C20.4507 2.08337 23.1591 4.79171 23.1591 8.12504V16.875C23.1591 18.4774 22.5225 20.0141 21.3895 21.1471C20.2565 22.2802 18.7198 22.9167 17.1174 22.9167H8.3674C5.03407 22.9167 2.32573 20.2084 2.32573 16.875V8.12504C2.32573 6.52269 2.96226 4.98597 4.0953 3.85294C5.22833 2.71991 6.76505 2.08337 8.3674 2.08337ZM8.15907 4.16671C7.16451 4.16671 6.21068 4.5618 5.50742 5.26506C4.80415 5.96832 4.40907 6.92215 4.40907 7.91671V17.0834C4.40907 19.1563 6.08615 20.8334 8.15907 20.8334H17.3257C18.3203 20.8334 19.2741 20.4383 19.9774 19.735C20.6806 19.0318 21.0757 18.0779 21.0757 17.0834V7.91671C21.0757 5.84379 19.3987 4.16671 17.3257 4.16671H8.15907ZM18.2112 5.72921C18.5565 5.72921 18.8877 5.86639 19.1319 6.11058C19.3761 6.35477 19.5132 6.68596 19.5132 7.03129C19.5132 7.37663 19.3761 7.70782 19.1319 7.952C18.8877 8.19619 18.5565 8.33337 18.2112 8.33337C17.8658 8.33337 17.5346 8.19619 17.2904 7.952C17.0463 7.70782 16.9091 7.37663 16.9091 7.03129C16.9091 6.68596 17.0463 6.35477 17.2904 6.11058C17.5346 5.86639 17.8658 5.72921 18.2112 5.72921ZM12.7424 7.29171C14.1237 7.29171 15.4485 7.84044 16.4252 8.81719C17.402 9.79395 17.9507 11.1187 17.9507 12.5C17.9507 13.8814 17.402 15.2061 16.4252 16.1829C15.4485 17.1596 14.1237 17.7084 12.7424 17.7084C11.3611 17.7084 10.0363 17.1596 9.05955 16.1829C8.0828 15.2061 7.53407 13.8814 7.53407 12.5C7.53407 11.1187 8.0828 9.79395 9.05955 8.81719C10.0363 7.84044 11.3611 7.29171 12.7424 7.29171ZM12.7424 9.37504C11.9136 9.37504 11.1187 9.70428 10.5327 10.2903C9.94664 10.8764 9.6174 11.6712 9.6174 12.5C9.6174 13.3288 9.94664 14.1237 10.5327 14.7098C11.1187 15.2958 11.9136 15.625 12.7424 15.625C13.5712 15.625 14.3661 15.2958 14.9521 14.7098C15.5382 14.1237 15.8674 13.3288 15.8674 12.5C15.8674 11.6712 15.5382 10.8764 14.9521 10.2903C14.3661 9.70428 13.5712 9.37504 12.7424 9.37504Z" fill="black"/>
</g>
</svg>
