<svg width="34" height="40" viewBox="0 0 34 40" fill="none" xmlns="http://www.w3.org/2000/svg">
<g id="icon:apple">
<path id="icon:apple_2" d="M32.2135 13.6471C29.5481 15.2941 27.9018 18.1176 27.9018 21.2549C27.9018 24.7843 30.0184 28 33.2326 29.3333C32.6054 31.3726 31.6647 33.2549 30.4888 34.9804C28.7641 37.4118 26.9611 39.9216 24.2957 39.9216C21.6303 39.9216 20.8464 38.3529 17.7107 38.3529C14.6533 38.3529 13.5558 40 11.0472 40C8.53861 40 6.81395 37.7255 4.85411 34.902C2.26712 30.9804 0.777643 26.4314 0.699249 21.6471C0.699249 13.8824 5.71644 9.72549 10.7336 9.72549C13.399 9.72549 15.594 11.451 17.2403 11.451C18.8082 11.451 21.3168 9.64706 24.2957 9.64706C27.4315 9.56863 30.4104 11.0588 32.2135 13.6471ZM22.8846 6.35294C24.2173 4.78431 24.9229 2.82353 25.0013 0.784314C25.0013 0.54902 25.0013 0.235294 24.9229 0C22.6494 0.235294 20.5328 1.33333 19.0433 3.05882C17.7107 4.54902 16.9267 6.43137 16.8483 8.47059C16.8483 8.70588 16.8483 8.94118 16.9267 9.17647C17.0835 9.17647 17.3187 9.2549 17.4755 9.2549C19.5921 9.09804 21.5519 8 22.8846 6.35294Z" fill="black"/>
</g>
</svg>
