<svg width="21" height="20" viewBox="0 0 21 20" fill="none" xmlns="http://www.w3.org/2000/svg">
<path d="M19.7757 11.9803C19.6751 11.8795 19.5489 11.8079 19.4106 11.7734C19.2724 11.7388 19.1274 11.7425 18.9911 11.7842C17.495 12.2365 15.9043 12.2744 14.3884 11.8939C12.8724 11.5134 11.4881 10.7288 10.383 9.62362C9.27781 8.51846 8.49319 7.13416 8.11271 5.61824C7.73223 4.10232 7.77015 2.51157 8.22243 1.0155C8.26441 0.879174 8.26843 0.733987 8.23406 0.595551C8.19969 0.457114 8.12823 0.330666 8.02737 0.229805C7.92651 0.128944 7.80006 0.0574862 7.66162 0.0231169C7.52319 -0.0112524 7.378 -0.00723286 7.24168 0.0347431C5.17329 0.668354 3.35744 1.93818 2.05251 3.66353C0.911315 5.17866 0.215216 6.98199 0.0424177 8.87092C-0.130381 10.7598 0.226966 12.6595 1.07431 14.3566C1.92166 16.0536 3.22543 17.4808 4.83916 18.4777C6.45288 19.4746 8.31262 20.0017 10.2094 20C12.4224 20.0068 14.5764 19.2874 16.3411 17.9521C18.0665 16.6472 19.3363 14.8314 19.9699 12.763C20.0114 12.6272 20.0152 12.4826 19.981 12.3448C19.9468 12.207 19.8759 12.081 19.7757 11.9803ZM15.3976 16.6987C13.7358 17.9504 11.6777 18.5597 9.6023 18.4144C7.52688 18.2691 5.57381 17.3789 4.10262 15.9079C2.63142 14.4368 1.74113 12.4838 1.59564 10.4084C1.45015 8.33296 2.05925 6.27485 3.31082 4.6129C4.12622 3.53609 5.18039 2.66321 6.39038 2.06294C6.32145 2.54668 6.28671 3.03467 6.28642 3.52328C6.28928 6.22757 7.36482 8.82028 9.27704 10.7325C11.1893 12.6447 13.782 13.7203 16.4863 13.7231C16.9759 13.723 17.4648 13.6882 17.9495 13.6192C17.3487 14.8294 16.4751 15.8836 15.3976 16.6987Z" fill="#07203F"/>
</svg>
