<svg width="21" height="21" viewBox="0 0 21 21" fill="none" xmlns="http://www.w3.org/2000/svg">
<g id="icon:oups">
<path id="icon:oups_2" d="M10.5 1.96875C12.7626 1.96875 14.9326 2.86758 16.5325 4.4675C18.1324 6.06742 19.0312 8.23737 19.0312 10.5C19.0312 12.7626 18.1324 14.9326 16.5325 16.5325C14.9326 18.1324 12.7626 19.0312 10.5 19.0312C8.23737 19.0312 6.06742 18.1324 4.4675 16.5325C2.86758 14.9326 1.96875 12.7626 1.96875 10.5C1.96875 8.23737 2.86758 6.06742 4.4675 4.4675C6.06742 2.86758 8.23737 1.96875 10.5 1.96875ZM10.5 21C13.2848 21 15.9555 19.8938 17.9246 17.9246C19.8938 15.9555 21 13.2848 21 10.5C21 7.71523 19.8938 5.04451 17.9246 3.07538C15.9555 1.10625 13.2848 0 10.5 0C7.71523 0 5.04451 1.10625 3.07538 3.07538C1.10625 5.04451 0 7.71523 0 10.5C0 13.2848 1.10625 15.9555 3.07538 17.9246C5.04451 19.8938 7.71523 21 10.5 21ZM6.89062 15.4219C6.89062 15.9674 7.32949 16.4062 7.875 16.4062H13.125C13.6705 16.4062 14.1094 15.9674 14.1094 15.4219C14.1094 14.8764 13.6705 14.4375 13.125 14.4375H7.875C7.32949 14.4375 6.89062 14.8764 6.89062 15.4219ZM6.5625 11.1562C5.47559 11.1562 4.59375 10.2744 4.59375 9.1875C4.59375 8.60098 4.85215 8.07188 5.2582 7.71094C5.25 7.76426 5.25 7.81758 5.25 7.875C5.25 8.60098 5.83652 9.1875 6.5625 9.1875C7.28848 9.1875 7.875 8.60098 7.875 7.875C7.875 7.81758 7.8709 7.76426 7.8668 7.71094C8.27695 8.07188 8.53125 8.60098 8.53125 9.1875C8.53125 10.2744 7.64941 11.1562 6.5625 11.1562ZM6.5625 12.4688C7.43274 12.4688 8.26734 12.123 8.88269 11.5077C9.49805 10.8923 9.84375 10.0577 9.84375 9.1875C9.84375 8.31726 9.49805 7.48266 8.88269 6.86731C8.26734 6.25195 7.43274 5.90625 6.5625 5.90625C5.69226 5.90625 4.85766 6.25195 4.24231 6.86731C3.62695 7.48266 3.28125 8.31726 3.28125 9.1875C3.28125 10.0577 3.62695 10.8923 4.24231 11.5077C4.85766 12.123 5.69226 12.4688 6.5625 12.4688ZM14.4375 11.1562C13.3506 11.1562 12.4688 10.2744 12.4688 9.1875C12.4688 8.60098 12.7271 8.07188 13.1332 7.71094C13.125 7.76426 13.125 7.81758 13.125 7.875C13.125 8.60098 13.7115 9.1875 14.4375 9.1875C15.1635 9.1875 15.75 8.60098 15.75 7.875C15.75 7.81758 15.7459 7.76426 15.7418 7.71094C16.152 8.07188 16.4062 8.60098 16.4062 9.1875C16.4062 10.2744 15.5244 11.1562 14.4375 11.1562ZM14.4375 12.4688C15.3077 12.4688 16.1423 12.123 16.7577 11.5077C17.373 10.8923 17.7188 10.0577 17.7188 9.1875C17.7188 8.31726 17.373 7.48266 16.7577 6.86731C16.1423 6.25195 15.3077 5.90625 14.4375 5.90625C13.5673 5.90625 12.7327 6.25195 12.1173 6.86731C11.502 7.48266 11.1562 8.31726 11.1562 9.1875C11.1562 10.0577 11.502 10.8923 12.1173 11.5077C12.7327 12.123 13.5673 12.4688 14.4375 12.4688Z" fill="#07203F"/>
</g>
</svg>
