<svg width="41" height="36" viewBox="0 0 41 36" fill="none" xmlns="http://www.w3.org/2000/svg">
<g id="icon:path">
<g id="bg" filter="url(#filter0_d_139_3814)">
<ellipse cx="20.0365" cy="17.7018" rx="15.0203" ry="12.5" fill="#F2F2F2"/>
<path d="M34.5568 17.7018C34.5568 24.2471 28.1458 29.7018 20.0365 29.7018C11.9273 29.7018 5.51624 24.2471 5.51624 17.7018C5.51624 11.1564 11.9273 5.70178 20.0365 5.70178C28.1458 5.70178 34.5568 11.1564 34.5568 17.7018Z" stroke="#07203F"/>
</g>
<path id="icon:path_2" fill-rule="evenodd" clip-rule="evenodd" d="M23.5288 12.9001C23.5288 12.7149 23.6172 12.5373 23.7746 12.4063C23.9319 12.2754 24.1454 12.2018 24.3679 12.2018H30.6128C30.8354 12.2018 31.0488 12.2754 31.2062 12.4063C31.3635 12.5373 31.4519 12.7149 31.4519 12.9001V18.0636C31.4519 18.2488 31.3635 18.4264 31.2062 18.5574C31.0488 18.6883 30.8354 18.7619 30.6128 18.7619C30.3903 18.7619 30.1769 18.6883 30.0195 18.5574C29.8622 18.4264 29.7738 18.2488 29.7738 18.0636V14.5787L22.909 20.2553C22.3843 20.6892 21.9324 21.0635 21.5218 21.3232C21.081 21.6007 20.5932 21.8111 19.9902 21.8111C19.3883 21.8111 18.8994 21.6007 18.4586 21.3223C18.048 21.0634 17.5971 20.6892 17.0713 20.2553L16.7648 20.0011C16.1897 19.5254 15.8172 19.2191 15.5062 19.0226C15.2153 18.8383 15.0788 18.8178 14.9882 18.8178C14.8987 18.8178 14.7622 18.8392 14.4713 19.0226C14.1614 19.2191 13.7889 19.5254 13.2138 20.0021L8.82939 23.635C8.67006 23.7581 8.45952 23.8249 8.24214 23.8214C8.02477 23.8179 7.81752 23.7443 7.66407 23.6161C7.51063 23.4879 7.42296 23.3151 7.41954 23.1342C7.41612 22.9533 7.49721 22.7784 7.64574 22.6462L12.0682 18.9798C12.594 18.5459 13.0449 18.1707 13.4555 17.9109C13.8963 17.6316 14.3852 17.4221 14.9882 17.4212C15.5912 17.4212 16.0801 17.6316 16.5209 17.91C16.9315 18.1698 17.3835 18.544 17.9082 18.9788L18.2158 19.2321C18.7909 19.7079 19.1634 20.0142 19.4733 20.2097C19.7642 20.394 19.9007 20.4145 19.9902 20.4145C20.0797 20.4145 20.2162 20.394 20.507 20.2097C20.8181 20.0142 21.1895 19.7079 21.7657 19.2321L28.5789 13.5974H24.3679C24.1454 13.5974 23.9319 13.5238 23.7746 13.3929C23.6172 13.2619 23.5288 13.0853 23.5288 12.9001Z" fill="#07203F"/>
</g>
<defs>
<filter id="filter0_d_139_3814" x="0.0162354" y="0.201782" width="40.0406" height="35" filterUnits="userSpaceOnUse" color-interpolation-filters="sRGB">
<feFlood flood-opacity="0" result="BackgroundImageFix"/>
<feColorMatrix in="SourceAlpha" type="matrix" values="0 0 0 0 0 0 0 0 0 0 0 0 0 0 0 0 0 0 127 0" result="hardAlpha"/>
<feOffset/>
<feGaussianBlur stdDeviation="2.5"/>
<feComposite in2="hardAlpha" operator="out"/>
<feColorMatrix type="matrix" values="0 0 0 0 0 0 0 0 0 0 0 0 0 0 0 0 0 0 1 0"/>
<feBlend mode="normal" in2="BackgroundImageFix" result="effect1_dropShadow_139_3814"/>
<feBlend mode="normal" in="SourceGraphic" in2="effect1_dropShadow_139_3814" result="shape"/>
</filter>
</defs>
</svg>
