<svg width="47" height="40" viewBox="0 0 47 40" fill="none" xmlns="http://www.w3.org/2000/svg">
<g id="icon:desktop">
<path id="icon:desktop_2" d="M44.6154 0H1.53846C1.13044 0 0.739122 0.162087 0.450605 0.450605C0.162087 0.739122 0 1.13044 0 1.53846V32.3077C0 32.7157 0.162087 33.107 0.450605 33.3955C0.739122 33.6841 1.13044 33.8462 1.53846 33.8462H17.6923V36.9231H10.7692V40H35.3846V36.9231H28.4615V33.8462H44.6154C45.0234 33.8462 45.4147 33.6841 45.7032 33.3955C45.9918 33.107 46.1538 32.7157 46.1538 32.3077V1.53846C46.1538 1.13044 45.9918 0.739122 45.7032 0.450605C45.4147 0.162087 45.0234 0 44.6154 0ZM42.6923 3.46154V24.2308H3.46154V3.46154H42.6923ZM21.551 29.4308C21.5093 29.1121 21.5684 28.7885 21.7201 28.5052C21.8718 28.2219 22.1083 27.9932 22.3966 27.8512C22.6848 27.7092 23.0103 27.661 23.3274 27.7134C23.6444 27.7658 23.9371 27.9162 24.1643 28.1434C24.3915 28.3706 24.5419 28.6633 24.5943 28.9803C24.6467 29.2974 24.5985 29.6229 24.4565 29.9111C24.3145 30.1994 24.0858 30.4359 23.8025 30.5876C23.5192 30.7393 23.1955 30.7984 22.8769 30.7567C22.5407 30.7128 22.2284 30.5589 21.9886 30.3191C21.7488 30.0793 21.5949 29.767 21.551 29.4308Z" fill="black"/>
</g>
</svg>
