<svg width="52" height="40" viewBox="0 0 52 40" fill="none" xmlns="http://www.w3.org/2000/svg">
<g id="icon:playstation">
<path id="icon:playstation_2" d="M1.06063 29.1304C-0.899795 30.4348 -0.246321 32.8804 3.89235 34.0217C8.13993 35.4348 12.8232 35.8152 17.343 35.0543C17.6153 35.0543 17.8331 34.9457 17.9965 34.9457V30.5435L13.5855 31.9565C11.8974 32.4457 10.2093 32.6087 8.52112 32.2283C7.21417 31.8478 7.48645 31.087 9.01122 30.4348L17.9965 27.337V22.5543L5.58049 26.7935C4.05571 27.337 2.47649 28.0978 1.06063 29.1304ZM31.066 9.78261V22.2826C36.3482 24.837 40.4869 22.2826 40.4869 15.5978C40.4869 8.75 38.0364 5.65217 30.9026 3.20652C27.1451 1.90217 23.2787 0.76087 19.4123 0V37.2826L28.4521 40V8.6413C28.4521 7.22826 28.4521 6.19565 29.4867 6.57609C30.9026 6.95652 31.066 8.36957 31.066 9.78261ZM47.8385 26.1957C44.081 24.8913 40.1057 24.4022 36.1848 24.7826C34.1155 24.8913 32.1551 25.4348 30.358 26.087L29.9768 26.1957V31.25L38.3631 28.1522C40.0512 27.663 41.7394 27.5 43.4275 27.8804C44.7345 28.2609 44.4622 29.0217 42.9374 29.6739L30.0313 34.4565V39.3478L47.8385 32.7717C49.1454 32.2826 50.289 31.6304 51.3236 30.5978C52.2494 29.2935 51.8682 27.4457 47.8385 26.1957Z" fill="#0070D1"/>
</g>
</svg>
