<svg width="51" height="50" viewBox="0 0 51 50" fill="none" xmlns="http://www.w3.org/2000/svg">
<g id="icon:reviews">
<path id="icon:reviews_2" d="M18.6123 30.625L25.9248 26.1875L33.2373 30.625L31.2998 22.3125L37.7998 16.6875L29.2373 16L25.9248 8.125L22.6123 16L14.0498 16.6875L20.5498 22.3125L18.6123 30.625ZM0.924805 50V5C0.924805 3.625 1.4148 2.4475 2.3948 1.4675C3.3748 0.487504 4.55147 -0.00166242 5.9248 4.24448e-06H45.9248C47.2998 4.24448e-06 48.4773 0.490004 49.4573 1.47C50.4373 2.45 50.9265 3.62667 50.9248 5V35C50.9248 36.375 50.4348 37.5525 49.4548 38.5325C48.4748 39.5125 47.2981 40.0017 45.9248 40H10.9248L0.924805 50ZM8.7998 35H45.9248V5H5.9248V37.8125L8.7998 35Z" fill="white"/>
</g>
</svg>
