<svg width="51" height="50" viewBox="0 0 51 50" fill="none" xmlns="http://www.w3.org/2000/svg">
<g id="icon:reviews">
<path id="icon:reviews_2" d="M18.6118 30.625L25.9243 26.1875L33.2368 30.625L31.2993 22.3125L37.7993 16.6875L29.2368 16L25.9243 8.125L22.6118 16L14.0493 16.6875L20.5493 22.3125L18.6118 30.625ZM0.924316 50V5C0.924316 3.625 1.41432 2.4475 2.39432 1.4675C3.37432 0.487504 4.55098 -0.00166242 5.92432 4.24448e-06H45.9243C47.2993 4.24448e-06 48.4768 0.490004 49.4568 1.47C50.4368 2.45 50.926 3.62667 50.9243 5V35C50.9243 36.375 50.4343 37.5525 49.4543 38.5325C48.4743 39.5125 47.2976 40.0017 45.9243 40H10.9243L0.924316 50ZM8.79932 35H45.9243V5H5.92432V37.8125L8.79932 35Z" fill="#07203F"/>
</g>
</svg>
