<svg width="41" height="36" viewBox="0 0 41 36" fill="none" xmlns="http://www.w3.org/2000/svg">
<g id="icon:sword">
<g id="bg" filter="url(#filter0_d_139_3824)">
<ellipse cx="20.0365" cy="17.7018" rx="15.0203" ry="12.5" fill="#F2F2F2"/>
<path d="M34.5568 17.7018C34.5568 24.2471 28.1458 29.7018 20.0365 29.7018C11.9273 29.7018 5.51624 24.2471 5.51624 17.7018C5.51624 11.1564 11.9273 5.70178 20.0365 5.70178C28.1458 5.70178 34.5568 11.1564 34.5568 17.7018Z" stroke="#07203F"/>
</g>
<path id="icon:sword_2" d="M11.3197 20.2873L12.4884 21.2599L9.99948 23.3132C9.69648 23.5744 9.15542 23.5744 8.85242 23.3132C8.54942 23.052 8.5386 22.6108 8.85242 22.3586L11.3197 20.2873ZM26.2423 9.48058V8.20178L19.4357 13.8663L12.6291 8.20178V9.48058L18.6674 14.5057L14.5661 17.9369C13.2892 17.1804 11.5145 17.2704 10.3782 18.216L14.9773 22.0434C16.1136 21.0978 16.2218 19.6209 15.3236 18.5582L26.2423 9.48058ZM30.019 22.3586L27.5517 20.2873L26.383 21.2599L28.8719 23.3132C29.1749 23.5744 29.716 23.5744 30.019 23.3132C30.322 23.052 30.3328 22.6108 30.019 22.3586ZM24.3053 17.9369L20.9723 15.1451L20.204 15.7845L23.5586 18.5582C22.6497 19.6209 22.7579 21.0978 23.8941 22.0434L28.4932 18.216C27.3569 17.2704 25.5822 17.1804 24.3053 17.9369Z" fill="#07203F"/>
</g>
<defs>
<filter id="filter0_d_139_3824" x="0.0162354" y="0.201782" width="40.0406" height="35" filterUnits="userSpaceOnUse" color-interpolation-filters="sRGB">
<feFlood flood-opacity="0" result="BackgroundImageFix"/>
<feColorMatrix in="SourceAlpha" type="matrix" values="0 0 0 0 0 0 0 0 0 0 0 0 0 0 0 0 0 0 127 0" result="hardAlpha"/>
<feOffset/>
<feGaussianBlur stdDeviation="2.5"/>
<feComposite in2="hardAlpha" operator="out"/>
<feColorMatrix type="matrix" values="0 0 0 0 0 0 0 0 0 0 0 0 0 0 0 0 0 0 1 0"/>
<feBlend mode="normal" in2="BackgroundImageFix" result="effect1_dropShadow_139_3824"/>
<feBlend mode="normal" in="SourceGraphic" in2="effect1_dropShadow_139_3824" result="shape"/>
</filter>
</defs>
</svg>
