<svg width="41" height="40" viewBox="0 0 41 40" fill="none" xmlns="http://www.w3.org/2000/svg">
<g id="icon:xbox">
<path id="Vector" d="M20.77 16.0513C26.7982 20.6415 37.0547 31.9031 33.9406 35.0677C30.398 38.1468 25.7982 40 20.77 40C15.7417 40 11.0848 38.1468 7.59928 35.0677C4.4566 31.8746 14.7417 20.613 20.7128 16.0798C20.7128 16.0513 20.77 16.0513 20.77 16.0513Z" fill="#107C10"/>
<path id="Vector_2" d="M31.1979 2.93656C28.1409 1.08339 24.7983 0 20.7699 0C16.7416 0 13.3704 1.08339 10.3134 2.93656C10.2563 2.93656 10.2563 2.99358 10.2563 3.0221C10.2563 3.05061 10.3134 3.07912 10.342 3.07912C14.2275 2.22381 20.1128 5.55951 20.6842 5.93015H20.7699C21.3128 5.58803 27.1981 2.25232 31.1122 3.07912C31.1693 3.07912 31.1979 3.07912 31.1979 3.0221C31.1979 2.96507 31.2551 2.93656 31.1979 2.93656Z" fill="#107C10"/>
<path id="Vector_3" d="M6.74218 5.73058C6.68504 5.73058 6.68504 5.7876 6.65647 5.7876C2.99954 9.40841 0.742523 14.4547 0.742523 19.9857C0.742523 24.5189 2.28529 28.7384 4.828 32.1026C4.828 32.1597 4.88514 32.1597 4.91371 32.1597C4.97085 32.1597 4.97085 32.1026 4.91371 32.0741C3.39951 27.2844 11.2276 15.8803 15.256 11.119L15.3131 11.062C15.3131 11.005 15.3131 11.005 15.256 11.005C9.14204 4.93229 7.08502 5.58803 6.74218 5.73058Z" fill="#107C10"/>
<path id="Vector_4" d="M26.2554 10.948L26.1982 11.005C26.1982 11.005 26.1982 11.062 26.2554 11.062C30.3123 15.8517 38.0832 27.2559 36.5976 31.9886V32.0741C36.6548 32.0741 36.6833 32.0741 36.6833 32.0171C39.226 28.6814 40.7688 24.4334 40.7688 19.9002C40.7688 14.3692 38.5118 9.35139 34.8263 5.70207C34.7692 5.64505 34.7692 5.64505 34.7406 5.64505C34.4263 5.58803 32.3979 4.93229 26.2554 10.948Z" fill="#107C10"/>
</g>
</svg>
