<svg width="26" height="25" viewBox="0 0 26 25" fill="none" xmlns="http://www.w3.org/2000/svg">
<path d="M22.4209 7.60624C22.3067 7.1764 22.0817 6.78409 21.7682 6.46861C21.4547 6.15313 21.0639 5.92555 20.6348 5.80867C19.0594 5.38367 12.7424 5.38367 12.7424 5.38367C12.7424 5.38367 6.42539 5.38367 4.85004 5.80867C4.42094 5.92555 4.03008 6.15313 3.71661 6.46861C3.40314 6.78409 3.17807 7.1764 3.06393 7.60624C2.64171 9.19165 2.64171 12.5 2.64171 12.5C2.64171 12.5 2.64171 15.8083 3.06393 17.3941C3.17807 17.8239 3.40314 18.2162 3.71661 18.5317C4.03008 18.8472 4.42094 19.0748 4.85004 19.1917C6.42539 19.6163 12.7424 19.6163 12.7424 19.6163C12.7424 19.6163 19.0594 19.6163 20.6348 19.1917C21.0639 19.0748 21.4547 18.8472 21.7682 18.5317C22.0817 18.2162 22.3067 17.8239 22.4209 17.3941C22.8431 15.8083 22.8431 12.5 22.8431 12.5C22.8431 12.5 22.8431 9.19165 22.4209 7.60624Z" fill="#EA5A47"/>
<path d="M10.6764 15.5035L15.9563 12.5001L10.6764 9.49658V15.5035Z" fill="white"/>
<path d="M22.4209 7.60624C22.3067 7.1764 22.0817 6.78409 21.7682 6.46861C21.4547 6.15313 21.0639 5.92555 20.6348 5.80867C19.0594 5.38367 12.7424 5.38367 12.7424 5.38367C12.7424 5.38367 6.42539 5.38367 4.85004 5.80867C4.42094 5.92555 4.03008 6.15313 3.71661 6.46861C3.40314 6.78409 3.17807 7.1764 3.06393 7.60624C2.64171 9.19165 2.64171 12.5 2.64171 12.5C2.64171 12.5 2.64171 15.8083 3.06393 17.3941C3.17807 17.8239 3.40314 18.2162 3.71661 18.5317C4.03008 18.8472 4.42094 19.0748 4.85004 19.1917C6.42539 19.6163 12.7424 19.6163 12.7424 19.6163C12.7424 19.6163 19.0594 19.6163 20.6348 19.1917C21.0639 19.0748 21.4547 18.8472 21.7682 18.5317C22.0817 18.2162 22.3067 17.8239 22.4209 17.3941C22.8431 15.8083 22.8431 12.5 22.8431 12.5C22.8431 12.5 22.8431 9.19165 22.4209 7.60624Z" stroke="black" stroke-width="2" stroke-miterlimit="10"/>
<path d="M10.6764 15.5034L15.9563 12.4999L10.6764 9.49646V15.5034Z" stroke="black" stroke-width="2" stroke-miterlimit="10" stroke-linecap="round" stroke-linejoin="round"/>
</svg>
